<svg width="42" height="45" viewBox="0 0 42 45" fill="none" xmlns="http://www.w3.org/2000/svg">
<path d="M35.4516 38.5376C39.241 34.7392 41.3198 29.6927 41.3108 24.3273L41.2928 11.711C41.2973 11.4955 41.194 11.262 41.0189 11.0914C40.8528 10.9298 40.6418 10.8445 40.4353 10.849L28.7977 10.8669L24.2495 1.00735C24.1508 0.809796 23.8814 0.5 23.4728 0.5C23.3561 0.5 23.2259 0.526939 23.0912 0.585306L11.6557 5.88327C6.78873 8.13714 3.08914 12.1555 1.23934 17.1931C-0.610454 22.2306 -0.385964 27.6857 1.8724 32.5527L7.87975 44.0286C8.00995 44.271 8.37363 44.5943 8.84057 44.4776L8.94832 44.4641L21.2638 44.4461C26.6247 44.4371 31.6667 42.3404 35.4516 38.5376ZM23.5536 3.63837L26.8985 10.8849L26.2565 10.9343C24.5504 11.069 22.8712 11.4147 21.2593 11.9714L20.3614 12.2812L23.5536 3.63837ZM7.76302 30.9857L7.77648 40.0865L3.44383 31.8118C1.38751 27.3535 1.18546 22.3788 2.86914 17.7902C4.5573 13.1882 7.93812 9.52 12.383 7.45918L21.9193 3.04122L18.1075 13.3767L17.9638 13.4576C16.3834 14.3555 14.9198 15.469 13.6222 16.771C9.83281 20.5739 7.75404 25.6204 7.76302 30.9857ZM9.4871 36.3151C9.3973 29.0147 9.32996 23.7392 14.8524 18.0102C20.5769 12.3845 26.1846 12.4743 32.6769 12.5865C34.1495 12.609 35.6716 12.6359 37.2385 12.591L38.361 12.5596L9.50506 41.5412L9.51404 40.4412C9.52302 38.982 9.50506 37.6261 9.4871 36.3151ZM10.7757 42.722L39.5642 13.8167L39.5822 24.3273C39.5957 34.4429 31.3793 42.6906 21.2593 42.7041L10.7757 42.722Z" fill="#98B020"/>
</svg>
