<svg width="45" height="45" viewBox="0 0 45 45" fill="none" xmlns="http://www.w3.org/2000/svg">
<path d="M0 26.723C0 33.5201 5.09445 39.048 11.3597 39.048C12.3295 39.048 13.2724 38.9184 14.1617 38.6637L14.7739 38.4894L15.1985 38.9631C18.3356 42.4801 22.7195 44.4955 27.2285 44.4955C31.6973 44.4955 35.8936 42.6097 39.062 39.1821C42.2527 35.7277 44.0089 31.1427 44.0089 26.2627C44.0089 22.2408 41.2517 16.5833 36.0366 9.91133C31.9521 4.69622 27.8988 0.794942 27.8586 0.754723C27.5056 0.415092 26.9559 0.415092 26.6074 0.754723C26.3794 0.973695 20.9275 6.2469 16.414 12.5748L15.6766 13.607L14.832 12.6641C14.184 11.9446 13.1651 10.8453 11.9854 9.69683C11.6368 9.36167 11.0871 9.36167 10.7386 9.7013C10.6224 9.81302 7.84278 12.4854 5.16596 15.9442C1.78753 20.2969 0 24.0239 0 26.723ZM17.2988 14.4472C20.5164 9.79961 24.4444 5.54083 26.5001 3.42261L27.2285 2.67185L27.9569 3.41814C29.4942 4.99563 33.4491 9.18739 36.8499 14.0361C40.3892 19.0769 42.1857 23.1927 42.1857 26.2717C42.1946 30.8701 40.4205 35.2942 37.3102 38.409C34.544 41.1797 30.9645 42.708 27.224 42.708C23.5462 42.708 20.141 41.3093 17.3792 38.6593L16.4899 37.8057L17.4999 37.0952C20.7577 34.8027 22.7061 30.9282 22.7061 26.7364C22.7061 23.9613 20.847 20.1315 17.3346 15.6582L16.8698 15.0684L17.2988 14.4472ZM10.6269 12.3692L11.3597 11.605L12.0926 12.3737C13.5673 13.9154 20.9141 21.8431 20.9141 26.7275C20.9141 32.5325 16.6285 37.2516 11.3597 37.2516C6.091 37.2516 1.8054 32.5325 1.8054 26.7275C1.80093 21.8163 9.15214 13.9065 10.6269 12.3692Z" fill="#98B020"/>
<path d="M37.234 25.8159C37.2206 25.3154 36.8228 24.9311 36.3313 24.9311C36.09 24.9356 35.8531 25.0339 35.6833 25.2082C35.5135 25.3824 35.4241 25.6104 35.4286 25.8517V25.8606C35.4286 26.0349 35.4018 30.1864 32.2378 33.614C31.8982 33.976 31.9295 34.548 32.3049 34.9144C32.4523 35.0574 32.6177 35.12 32.8367 35.12C33.1673 35.1111 33.498 34.9144 33.574 34.8385C37.3591 30.7271 37.234 25.8651 37.234 25.8159Z" fill="#98B020"/>
</svg>
