<svg width="53" height="45" viewBox="0 0 53 45" fill="none" xmlns="http://www.w3.org/2000/svg">
<path d="M40.1539 41.8648C41.2098 40.6298 41.8296 39.1148 41.9398 37.4942C42.0499 35.869 41.6459 34.2897 40.7691 32.9169L35.0716 24.0288C32.8129 20.5075 28.9702 18.4048 24.7878 18.4048C20.6055 18.4048 16.7582 20.5075 14.504 24.0288L8.80662 32.9169C7.92975 34.2851 7.52574 35.869 7.63592 37.4896C7.74611 39.1148 8.36589 40.6252 9.42182 41.8648C10.4777 43.0998 11.878 43.9491 13.4619 44.3072C15.0504 44.6699 16.6756 44.5138 18.1676 43.8619L18.2686 43.8159C20.3438 42.9207 22.5658 42.4754 24.7878 42.4754C27.0466 42.4754 29.3054 42.9391 31.408 43.8619C32.8955 44.5138 34.5207 44.6699 36.1092 44.3072C37.6977 43.9445 39.0934 43.0998 40.1539 41.8648ZM32.1839 42.0943C29.8425 41.0659 27.3542 40.5426 24.7833 40.5426C22.2123 40.5426 19.7286 41.0659 17.3872 42.0943L17.3183 42.1219C15.055 43.0768 12.4748 42.4708 10.8817 40.6114C9.27031 38.7245 9.08667 36.0526 10.4272 33.9591L16.1247 25.0755C18.0253 22.1098 21.262 20.3422 24.7833 20.3422C28.3045 20.3422 31.5412 22.1144 33.4419 25.0755L39.1393 33.9591C40.4798 36.0526 40.2962 38.7245 38.6802 40.6114C37.5875 41.8877 36.0358 42.5764 34.4473 42.5764C33.6898 42.5718 32.9185 42.4157 32.1839 42.0943Z" fill="#98B020"/>
<path d="M12.9384 19.672C13.503 18.0606 13.4571 16.2379 12.8006 14.5347C12.1441 12.836 10.9596 11.4495 9.45839 10.6323C8.54019 10.1319 7.56691 9.87943 6.60739 9.87943C5.95088 9.87943 5.29896 9.99879 4.67458 10.2375C1.56649 11.4312 0.152464 15.306 1.52058 18.8732C2.59028 21.6507 5.08777 23.5192 7.73218 23.5192C8.39328 23.5192 9.03602 23.3999 9.64662 23.1657C11.1846 22.5827 12.3553 21.3385 12.9384 19.672ZM11.1157 19.0338C10.7209 20.1586 9.95422 20.9896 8.95797 21.3707C8.55397 21.5268 8.13619 21.6002 7.71841 21.6002C5.93711 21.6002 4.12826 20.2688 3.32943 18.1891C2.34236 15.6182 3.25597 12.8636 5.37241 12.051C6.35489 11.6699 7.50722 11.7755 8.54019 12.3402C9.63744 12.937 10.5143 13.9654 11.001 15.2371C11.4922 16.5042 11.5335 17.854 11.1157 19.0338Z" fill="#98B020"/>
<path d="M20.5731 0.5C16.8177 0.5 13.7646 4.01669 13.7646 8.33681C13.7646 12.6569 16.8177 16.1736 20.5731 16.1736C24.3285 16.1736 27.3815 12.6569 27.3815 8.33681C27.3815 4.01669 24.3285 0.5 20.5731 0.5ZM20.5731 14.374C17.8093 14.374 15.5643 11.6653 15.5643 8.33681C15.5643 5.00835 17.8093 2.29508 20.5731 2.29508C23.3369 2.29508 25.5818 5.00376 25.5818 8.33681C25.5818 11.6653 23.3369 14.374 20.5731 14.374Z" fill="#98B020"/>
<path d="M30.5953 9.20906C29.296 13.1252 31.0085 17.2295 34.415 18.3635C34.998 18.5563 35.6086 18.6573 36.2192 18.6573C39.1391 18.6573 41.9121 16.4628 42.9542 13.3226C43.574 11.4541 43.5373 9.48452 42.844 7.77208C42.1278 6.00914 40.8102 4.72826 39.1345 4.16816C37.4542 3.61265 35.6316 3.84679 34.0064 4.83385C32.4271 5.78418 31.2151 7.34053 30.5953 9.20906ZM38.5285 5.99537C39.6625 6.37183 40.5577 7.25789 41.0581 8.48827C41.5769 9.77375 41.6045 11.2704 41.127 12.7074C40.3236 15.1268 38.2852 16.7245 36.2376 16.7245C35.829 16.7245 35.425 16.6602 35.0256 16.5271C32.6291 15.7283 31.463 12.7212 32.4271 9.81507C32.9045 8.38268 33.8181 7.19821 35.0072 6.47742C36.1412 5.79337 37.3945 5.61891 38.5285 5.99537Z" fill="#98B020"/>
<path d="M50.139 18.3405L50.0931 18.3084C49.1336 17.6152 48.0088 17.2846 46.8565 17.2846C44.7814 17.2846 42.6098 18.3543 41.1591 20.3147C38.8911 23.386 39.2171 27.495 41.8936 29.4737C42.8256 30.1669 43.9596 30.5296 45.1762 30.5296C47.3385 30.5296 49.4688 29.3956 50.8782 27.4995C53.1461 24.4328 52.8156 20.3238 50.139 18.3405ZM49.3264 26.3518C48.2521 27.8026 46.6683 28.606 45.1945 28.606C44.4187 28.606 43.6749 28.3856 43.0506 27.9219C41.2325 26.5722 41.081 23.6753 42.72 21.4624C43.7668 20.0484 45.3093 19.2036 46.8473 19.2036C47.6461 19.2036 48.3899 19.4424 49.0005 19.8923C50.8139 21.242 50.9608 24.1389 49.3264 26.3518Z" fill="#98B020"/>
</svg>
